<?xml version="1.0" encoding="UTF-8" standalone="no"?>
<!DOCTYPE svg PUBLIC "-//W3C//DTD SVG 1.1//EN" "http://www.w3.org/Graphics/SVG/1.1/DTD/svg11.dtd">
<svg width="100%" height="100%" viewBox="0 0 98 101" version="1.1" xmlns="http://www.w3.org/2000/svg" xmlns:xlink="http://www.w3.org/1999/xlink" xml:space="preserve" xmlns:serif="http://www.serif.com/" style="fill-rule:evenodd;clip-rule:evenodd;stroke-linejoin:round;stroke-miterlimit:2;">
    <g transform="matrix(1,0,0,1,-53437.149735,-7088.342839)">
        <g transform="matrix(1,0,0,3.575926,52965.07769,3569.843394)">
            <g transform="matrix(0.531005,0,0,0.148494,470.998518,983.940847)">
                <g>
                    <path d="M104.552,188.324L103.426,188.301C94.74,187.816 87.267,181.88 84.825,173.543L70.661,125.14L18.573,114.796C10.025,113.121 3.449,106.174 2.225,97.517C1.001,88.879 5.387,80.383 13.135,76.38L156.295,2.228C163.785,-1.655 173.438,-0.368 179.664,5.347C186,11.174 188.035,20.425 184.747,28.365L123.554,175.652C120.334,183.355 112.872,188.324 104.552,188.324ZM165.741,11.643C164.34,11.643 162.938,11.989 161.686,12.632L18.516,86.789C15.177,88.511 13.293,92.164 13.819,95.881C14.348,99.61 17.17,102.594 20.841,103.326L79.902,115.036L96.056,170.261C97.111,173.852 100.325,176.413 104.067,176.619L104.547,176.619C108.132,176.619 111.34,174.48 112.73,171.152L173.918,23.891C175.331,20.477 174.456,16.492 171.734,13.984C170.098,12.475 167.965,11.643 165.741,11.643Z" style="fill:rgb(69,48,0);fill-rule:nonzero;"/>
                </g>
                <g transform="matrix(1.810791,0,0,1.810791,-96763.370832,-12821.020576)">
                    <path d="M53500,7173L53532,7098C53536.008,7088.515 53532.996,7084.88 53524,7088L53448,7128C53444.285,7131.257 53444.142,7135.267 53448,7138L53478,7143C53480.518,7143.363 53481.98,7144.293 53482,7146L53490,7173C53492.579,7180.098 53496.525,7180.424 53500,7173Z" style="fill:rgb(194,137,0);"/>
                </g>
            </g>
        </g>
    </g>
</svg>
